<mxfile host="65bd71144e">
    <diagram name="Page-1" id="2YBvvXClWsGukQMizWep">
        <mxGraphModel dx="920" dy="695" grid="1" gridSize="10" guides="1" tooltips="1" connect="1" arrows="0" fold="1" page="1" pageScale="1" pageWidth="850" pageHeight="1100" math="0" shadow="0">
            <root>
                <mxCell id="0"/>
                <mxCell id="1" parent="0"/>
                <mxCell id="33" value="response token and&lt;br&gt;redirect to main page" style="html=1;verticalAlign=bottom;endArrow=open;dashed=1;endSize=8;edgeStyle=elbowEdgeStyle;elbow=vertical;curved=0;rounded=0;" edge="1" parent="1">
                    <mxGeometry x="0.0034" relative="1" as="geometry">
                        <mxPoint x="599" y="640" as="sourcePoint"/>
                        <mxPoint x="428.1153846153845" y="639.9230769230769" as="targetPoint"/>
                        <mxPoint as="offset"/>
                    </mxGeometry>
                </mxCell>
                <mxCell id="28" value="save userInfo (new username)" style="html=1;verticalAlign=bottom;endArrow=none;edgeStyle=elbowEdgeStyle;elbow=vertical;curved=0;rounded=0;startArrow=block;startFill=1;endFill=0;" edge="1" parent="1">
                    <mxGeometry x="-0.0554" relative="1" as="geometry">
                        <mxPoint x="963" y="721" as="sourcePoint"/>
                        <Array as="points">
                            <mxPoint x="745" y="721"/>
                            <mxPoint x="905" y="621"/>
                        </Array>
                        <mxPoint x="596.9999999999998" y="721" as="targetPoint"/>
                        <mxPoint as="offset"/>
                    </mxGeometry>
                </mxCell>
                <mxCell id="32" value="response main page" style="html=1;verticalAlign=bottom;endArrow=open;dashed=1;endSize=8;edgeStyle=elbowEdgeStyle;elbow=vertical;curved=0;rounded=0;" edge="1" parent="1" source="34">
                    <mxGeometry x="-0.0341" relative="1" as="geometry">
                        <mxPoint x="380" y="640" as="sourcePoint"/>
                        <mxPoint x="112" y="642" as="targetPoint"/>
                        <mxPoint as="offset"/>
                    </mxGeometry>
                </mxCell>
                <mxCell id="21" value="request userInfo with social email" style="html=1;verticalAlign=bottom;endArrow=none;edgeStyle=elbowEdgeStyle;elbow=vertical;curved=0;rounded=0;startArrow=block;startFill=1;endFill=0;" edge="1" parent="1" source="24">
                    <mxGeometry x="-0.0566" relative="1" as="geometry">
                        <mxPoint x="760" y="560" as="sourcePoint"/>
                        <Array as="points">
                            <mxPoint x="742" y="560"/>
                            <mxPoint x="902" y="460"/>
                        </Array>
                        <mxPoint x="593.9999999999999" y="560" as="targetPoint"/>
                        <mxPoint as="offset"/>
                    </mxGeometry>
                </mxCell>
                <mxCell id="10" value="access token request&lt;br&gt;with authorization code" style="html=1;verticalAlign=bottom;endArrow=none;edgeStyle=elbowEdgeStyle;elbow=vertical;curved=0;rounded=0;startArrow=block;startFill=1;endFill=0;" parent="1" edge="1">
                    <mxGeometry x="0.0064" relative="1" as="geometry">
                        <mxPoint x="790.5" y="476" as="sourcePoint"/>
                        <Array as="points">
                            <mxPoint x="747" y="476"/>
                            <mxPoint x="907" y="376"/>
                        </Array>
                        <mxPoint x="599" y="476" as="targetPoint"/>
                        <mxPoint as="offset"/>
                    </mxGeometry>
                </mxCell>
                <mxCell id="20" value="provider login" style="html=1;verticalAlign=bottom;startArrow=oval;endArrow=block;startSize=8;edgeStyle=elbowEdgeStyle;elbow=vertical;curved=0;rounded=0;" edge="1" parent="1">
                    <mxGeometry x="0.0162" relative="1" as="geometry">
                        <mxPoint x="247" y="417" as="sourcePoint"/>
                        <mxPoint x="418" y="417.18181818181813" as="targetPoint"/>
                        <Array as="points"/>
                        <mxPoint as="offset"/>
                    </mxGeometry>
                </mxCell>
                <mxCell id="18" value="input social email &lt;br&gt;&amp;amp; password" style="html=1;verticalAlign=bottom;startArrow=oval;endArrow=block;startSize=8;edgeStyle=elbowEdgeStyle;elbow=vertical;curved=0;rounded=0;" edge="1" parent="1">
                    <mxGeometry x="0.0162" relative="1" as="geometry">
                        <mxPoint x="108" y="413" as="sourcePoint"/>
                        <mxPoint x="240" y="413.3157894736843" as="targetPoint"/>
                        <Array as="points"/>
                        <mxPoint as="offset"/>
                    </mxGeometry>
                </mxCell>
                <mxCell id="ti7OjyQPhwodmMIkzD1--47" value="redirect to main page" style="html=1;verticalAlign=bottom;endArrow=open;dashed=1;endSize=8;edgeStyle=elbowEdgeStyle;elbow=vertical;curved=0;rounded=0;" parent="1" edge="1">
                    <mxGeometry x="0.0611" relative="1" as="geometry">
                        <mxPoint x="423" y="310" as="sourcePoint"/>
                        <mxPoint x="112" y="310" as="targetPoint"/>
                        <mxPoint as="offset"/>
                        <Array as="points">
                            <mxPoint x="346" y="310"/>
                            <mxPoint x="426.95" y="413.63"/>
                        </Array>
                    </mxGeometry>
                </mxCell>
                <mxCell id="ti7OjyQPhwodmMIkzD1--9" value="request login page" style="html=1;verticalAlign=bottom;startArrow=oval;endArrow=block;startSize=8;edgeStyle=elbowEdgeStyle;elbow=vertical;curved=0;rounded=0;" parent="1" edge="1">
                    <mxGeometry x="0.0116" relative="1" as="geometry">
                        <mxPoint x="247.18253968253975" y="241.29111111111115" as="sourcePoint"/>
                        <mxPoint x="418" y="241.29111111111115" as="targetPoint"/>
                        <Array as="points"/>
                        <mxPoint as="offset"/>
                    </mxGeometry>
                </mxCell>
                <mxCell id="aM9ryv3xv72pqoxQDRHE-3" value="access to login page" style="html=1;verticalAlign=bottom;startArrow=oval;endArrow=block;startSize=8;edgeStyle=elbowEdgeStyle;elbow=vertical;curved=0;rounded=0;" parent="1" edge="1">
                    <mxGeometry x="0.0208" relative="1" as="geometry">
                        <mxPoint x="108" y="236" as="sourcePoint"/>
                        <mxPoint x="240" y="236.31578947368428" as="targetPoint"/>
                        <Array as="points"/>
                        <mxPoint as="offset"/>
                    </mxGeometry>
                </mxCell>
                <mxCell id="aM9ryv3xv72pqoxQDRHE-1" value="FrontEnd" style="shape=umlLifeline;perimeter=lifelinePerimeter;whiteSpace=wrap;html=1;container=0;dropTarget=0;collapsible=0;recursiveResize=0;outlineConnect=0;portConstraint=eastwest;newEdgeStyle={&quot;edgeStyle&quot;:&quot;elbowEdgeStyle&quot;,&quot;elbow&quot;:&quot;vertical&quot;,&quot;curved&quot;:0,&quot;rounded&quot;:0};" parent="1" vertex="1">
                    <mxGeometry x="373" y="156" width="100" height="624" as="geometry"/>
                </mxCell>
                <mxCell id="aM9ryv3xv72pqoxQDRHE-2" value="" style="html=1;points=[];perimeter=orthogonalPerimeter;outlineConnect=0;targetShapes=umlLifeline;portConstraint=eastwest;newEdgeStyle={&quot;edgeStyle&quot;:&quot;elbowEdgeStyle&quot;,&quot;elbow&quot;:&quot;vertical&quot;,&quot;curved&quot;:0,&quot;rounded&quot;:0};" parent="aM9ryv3xv72pqoxQDRHE-1" vertex="1">
                    <mxGeometry x="45" y="73" width="10" height="27" as="geometry"/>
                </mxCell>
                <mxCell id="ti7OjyQPhwodmMIkzD1--10" value="" style="html=1;points=[];perimeter=orthogonalPerimeter;outlineConnect=0;targetShapes=umlLifeline;portConstraint=eastwest;newEdgeStyle={&quot;edgeStyle&quot;:&quot;elbowEdgeStyle&quot;,&quot;elbow&quot;:&quot;vertical&quot;,&quot;curved&quot;:0,&quot;rounded&quot;:0};" parent="aM9ryv3xv72pqoxQDRHE-1" vertex="1">
                    <mxGeometry x="45" y="137" width="10" height="26" as="geometry"/>
                </mxCell>
                <mxCell id="aM9ryv3xv72pqoxQDRHE-5" value="BackEnd" style="shape=umlLifeline;perimeter=lifelinePerimeter;whiteSpace=wrap;html=1;container=0;dropTarget=0;collapsible=0;recursiveResize=0;outlineConnect=0;portConstraint=eastwest;newEdgeStyle={&quot;edgeStyle&quot;:&quot;elbowEdgeStyle&quot;,&quot;elbow&quot;:&quot;vertical&quot;,&quot;curved&quot;:0,&quot;rounded&quot;:0};" parent="1" vertex="1">
                    <mxGeometry x="549" y="156" width="100" height="624" as="geometry"/>
                </mxCell>
                <mxCell id="aM9ryv3xv72pqoxQDRHE-9" value="authorization login request" style="html=1;verticalAlign=bottom;endArrow=none;edgeStyle=elbowEdgeStyle;elbow=vertical;curved=0;rounded=0;startArrow=block;startFill=1;endFill=0;" parent="1" edge="1">
                    <mxGeometry x="-0.0033" relative="1" as="geometry">
                        <mxPoint x="795.5" y="418.9999999999999" as="sourcePoint"/>
                        <Array as="points">
                            <mxPoint x="576" y="419"/>
                            <mxPoint x="736" y="319"/>
                        </Array>
                        <mxPoint x="427.9999999999999" y="419" as="targetPoint"/>
                        <mxPoint as="offset"/>
                    </mxGeometry>
                </mxCell>
                <mxCell id="ti7OjyQPhwodmMIkzD1--1" value="" style="shape=umlLifeline;perimeter=lifelinePerimeter;whiteSpace=wrap;html=1;container=1;dropTarget=0;collapsible=0;recursiveResize=0;outlineConnect=0;portConstraint=eastwest;newEdgeStyle={&quot;edgeStyle&quot;:&quot;elbowEdgeStyle&quot;,&quot;elbow&quot;:&quot;vertical&quot;,&quot;curved&quot;:0,&quot;rounded&quot;:0};participant=umlActor;" parent="1" vertex="1">
                    <mxGeometry x="97" y="156" width="20" height="624" as="geometry"/>
                </mxCell>
                <mxCell id="ti7OjyQPhwodmMIkzD1--8" value="" style="html=1;points=[];perimeter=orthogonalPerimeter;outlineConnect=0;targetShapes=umlLifeline;portConstraint=eastwest;newEdgeStyle={&quot;edgeStyle&quot;:&quot;elbowEdgeStyle&quot;,&quot;elbow&quot;:&quot;vertical&quot;,&quot;curved&quot;:0,&quot;rounded&quot;:0};" parent="ti7OjyQPhwodmMIkzD1--1" vertex="1">
                    <mxGeometry x="5" y="63" width="10" height="547" as="geometry"/>
                </mxCell>
                <mxCell id="ti7OjyQPhwodmMIkzD1--3" value="&lt;font style=&quot;font-size: 22px;&quot;&gt;OAuth 회원가입 / 로그인&lt;br&gt;OAuth API&lt;br&gt;&lt;/font&gt;" style="text;html=1;strokeColor=none;fillColor=none;align=center;verticalAlign=middle;whiteSpace=wrap;rounded=0;" parent="1" vertex="1">
                    <mxGeometry x="11" y="35" width="239" height="75" as="geometry"/>
                </mxCell>
                <mxCell id="ti7OjyQPhwodmMIkzD1--5" value="WebBrowser" style="shape=umlLifeline;perimeter=lifelinePerimeter;whiteSpace=wrap;html=1;container=1;dropTarget=0;collapsible=0;recursiveResize=0;outlineConnect=0;portConstraint=eastwest;newEdgeStyle={&quot;edgeStyle&quot;:&quot;elbowEdgeStyle&quot;,&quot;elbow&quot;:&quot;vertical&quot;,&quot;curved&quot;:0,&quot;rounded&quot;:0};" parent="1" vertex="1">
                    <mxGeometry x="197" y="156" width="100" height="624" as="geometry"/>
                </mxCell>
                <mxCell id="ti7OjyQPhwodmMIkzD1--7" value="" style="html=1;points=[];perimeter=orthogonalPerimeter;outlineConnect=0;targetShapes=umlLifeline;portConstraint=eastwest;newEdgeStyle={&quot;edgeStyle&quot;:&quot;elbowEdgeStyle&quot;,&quot;elbow&quot;:&quot;vertical&quot;,&quot;curved&quot;:0,&quot;rounded&quot;:0};" parent="ti7OjyQPhwodmMIkzD1--5" vertex="1">
                    <mxGeometry x="45" y="69" width="10" height="32" as="geometry"/>
                </mxCell>
                <mxCell id="ti7OjyQPhwodmMIkzD1--6" value="OAuth2 Provider&lt;br&gt;(Google, Kakao)" style="shape=umlLifeline;perimeter=lifelinePerimeter;whiteSpace=wrap;html=1;container=1;dropTarget=0;collapsible=0;recursiveResize=0;outlineConnect=0;portConstraint=eastwest;newEdgeStyle={&quot;edgeStyle&quot;:&quot;elbowEdgeStyle&quot;,&quot;elbow&quot;:&quot;vertical&quot;,&quot;curved&quot;:0,&quot;rounded&quot;:0};" parent="1" vertex="1">
                    <mxGeometry x="746" y="156" width="100" height="624" as="geometry"/>
                </mxCell>
                <mxCell id="ti7OjyQPhwodmMIkzD1--42" value="check login state" style="html=1;align=left;spacingLeft=2;endArrow=block;rounded=0;edgeStyle=orthogonalEdgeStyle;curved=0;rounded=0;startArrow=none;" parent="1" edge="1">
                    <mxGeometry x="-0.7027" relative="1" as="geometry">
                        <mxPoint x="428" y="244" as="sourcePoint"/>
                        <Array as="points">
                            <mxPoint x="450" y="244"/>
                            <mxPoint x="450" y="350"/>
                        </Array>
                        <mxPoint x="430" y="350" as="targetPoint"/>
                        <mxPoint as="offset"/>
                    </mxGeometry>
                </mxCell>
                <mxCell id="ti7OjyQPhwodmMIkzD1--59" value="redirect to login page" style="html=1;verticalAlign=bottom;endArrow=open;dashed=1;endSize=8;edgeStyle=elbowEdgeStyle;elbow=vertical;curved=0;rounded=0;" parent="1" edge="1">
                    <mxGeometry x="0.0429" relative="1" as="geometry">
                        <mxPoint x="416" y="359" as="sourcePoint"/>
                        <mxPoint x="113" y="359" as="targetPoint"/>
                        <mxPoint as="offset"/>
                        <Array as="points">
                            <mxPoint x="326" y="359"/>
                        </Array>
                    </mxGeometry>
                </mxCell>
                <mxCell id="ti7OjyQPhwodmMIkzD1--40" value="" style="html=1;points=[];perimeter=orthogonalPerimeter;outlineConnect=0;targetShapes=umlLifeline;portConstraint=eastwest;newEdgeStyle={&quot;edgeStyle&quot;:&quot;elbowEdgeStyle&quot;,&quot;elbow&quot;:&quot;vertical&quot;,&quot;curved&quot;:0,&quot;rounded&quot;:0};" parent="1" vertex="1">
                    <mxGeometry x="791" y="392" width="10" height="138" as="geometry"/>
                </mxCell>
                <mxCell id="6" value="" style="html=1;points=[];perimeter=orthogonalPerimeter;outlineConnect=0;targetShapes=umlLifeline;portConstraint=eastwest;newEdgeStyle={&quot;edgeStyle&quot;:&quot;elbowEdgeStyle&quot;,&quot;elbow&quot;:&quot;vertical&quot;,&quot;curved&quot;:0,&quot;rounded&quot;:0};" parent="1" vertex="1">
                    <mxGeometry x="418" y="344" width="10" height="90" as="geometry"/>
                </mxCell>
                <mxCell id="ti7OjyQPhwodmMIkzD1--58" value="authorization code response" style="html=1;verticalAlign=bottom;endArrow=open;dashed=1;endSize=8;edgeStyle=elbowEdgeStyle;elbow=vertical;curved=0;rounded=0;" parent="1" edge="1">
                    <mxGeometry x="-0.0247" relative="1" as="geometry">
                        <mxPoint x="790.5" y="441.090909090909" as="sourcePoint"/>
                        <mxPoint x="605" y="441" as="targetPoint"/>
                        <mxPoint as="offset"/>
                    </mxGeometry>
                </mxCell>
                <mxCell id="9" value="" style="html=1;points=[];perimeter=orthogonalPerimeter;outlineConnect=0;targetShapes=umlLifeline;portConstraint=eastwest;newEdgeStyle={&quot;edgeStyle&quot;:&quot;elbowEdgeStyle&quot;,&quot;elbow&quot;:&quot;vertical&quot;,&quot;curved&quot;:0,&quot;rounded&quot;:0};" parent="1" vertex="1">
                    <mxGeometry x="594" y="430" width="10" height="220" as="geometry"/>
                </mxCell>
                <mxCell id="14" value="not logged in" style="shape=umlFrame;whiteSpace=wrap;html=1;pointerEvents=0;fillColor=#f8cecc;strokeColor=#b85450;width=77;height=32;" parent="1" vertex="1">
                    <mxGeometry x="10" y="340" width="990" height="440" as="geometry"/>
                </mxCell>
                <mxCell id="16" value="" style="html=1;align=left;spacingLeft=2;endArrow=block;rounded=0;edgeStyle=orthogonalEdgeStyle;curved=0;rounded=0;startArrow=none;" edge="1" parent="1" target="ti7OjyQPhwodmMIkzD1--10">
                    <mxGeometry relative="1" as="geometry">
                        <mxPoint x="450" y="300" as="sourcePoint"/>
                        <Array as="points">
                            <mxPoint x="450" y="306"/>
                        </Array>
                        <mxPoint x="480" y="310" as="targetPoint"/>
                    </mxGeometry>
                </mxCell>
                <mxCell id="15" value="logged in" style="shape=umlFrame;whiteSpace=wrap;html=1;pointerEvents=0;fillColor=#D5E8D4;strokeColor=#82b366;width=77;height=32;" parent="1" vertex="1">
                    <mxGeometry x="10" y="270" width="450" height="60" as="geometry"/>
                </mxCell>
                <mxCell id="19" value="" style="html=1;points=[];perimeter=orthogonalPerimeter;outlineConnect=0;targetShapes=umlLifeline;portConstraint=eastwest;newEdgeStyle={&quot;edgeStyle&quot;:&quot;elbowEdgeStyle&quot;,&quot;elbow&quot;:&quot;vertical&quot;,&quot;curved&quot;:0,&quot;rounded&quot;:0};" vertex="1" parent="1">
                    <mxGeometry x="242" y="397" width="10" height="32" as="geometry"/>
                </mxCell>
                <mxCell id="22" value="DB" style="shape=umlLifeline;perimeter=lifelinePerimeter;whiteSpace=wrap;html=1;container=1;dropTarget=0;collapsible=0;recursiveResize=0;outlineConnect=0;portConstraint=eastwest;newEdgeStyle={&quot;edgeStyle&quot;:&quot;elbowEdgeStyle&quot;,&quot;elbow&quot;:&quot;vertical&quot;,&quot;curved&quot;:0,&quot;rounded&quot;:0};" vertex="1" parent="1">
                    <mxGeometry x="920" y="156" width="100" height="624" as="geometry"/>
                </mxCell>
                <mxCell id="23" value="publish access token" style="html=1;verticalAlign=bottom;endArrow=open;dashed=1;endSize=8;edgeStyle=elbowEdgeStyle;elbow=vertical;curved=0;rounded=0;" edge="1" parent="1">
                    <mxGeometry x="-0.0247" relative="1" as="geometry">
                        <mxPoint x="789.5" y="500.090909090909" as="sourcePoint"/>
                        <mxPoint x="603.9999999999999" y="500" as="targetPoint"/>
                        <mxPoint as="offset"/>
                    </mxGeometry>
                </mxCell>
                <mxCell id="24" value="" style="html=1;points=[];perimeter=orthogonalPerimeter;outlineConnect=0;targetShapes=umlLifeline;portConstraint=eastwest;newEdgeStyle={&quot;edgeStyle&quot;:&quot;elbowEdgeStyle&quot;,&quot;elbow&quot;:&quot;vertical&quot;,&quot;curved&quot;:0,&quot;rounded&quot;:0};" vertex="1" parent="1">
                    <mxGeometry x="965" y="550" width="10" height="220" as="geometry"/>
                </mxCell>
                <mxCell id="25" value="response UserInfo" style="html=1;verticalAlign=bottom;endArrow=open;dashed=1;endSize=8;edgeStyle=elbowEdgeStyle;elbow=vertical;curved=0;rounded=0;" edge="1" parent="1" source="24">
                    <mxGeometry x="-0.0247" relative="1" as="geometry">
                        <mxPoint x="789.5" y="585.350909090909" as="sourcePoint"/>
                        <mxPoint x="604" y="585.26" as="targetPoint"/>
                        <mxPoint as="offset"/>
                    </mxGeometry>
                </mxCell>
                <mxCell id="26" value="" style="html=1;points=[];perimeter=orthogonalPerimeter;outlineConnect=0;targetShapes=umlLifeline;portConstraint=eastwest;newEdgeStyle={&quot;edgeStyle&quot;:&quot;elbowEdgeStyle&quot;,&quot;elbow&quot;:&quot;vertical&quot;,&quot;curved&quot;:0,&quot;rounded&quot;:0};" vertex="1" parent="1">
                    <mxGeometry x="594" y="687" width="10" height="80" as="geometry"/>
                </mxCell>
                <mxCell id="27" value="generate jwt token" style="html=1;align=left;spacingLeft=2;endArrow=block;rounded=0;edgeStyle=orthogonalEdgeStyle;curved=0;rounded=0;startArrow=none;" edge="1" parent="1">
                    <mxGeometry x="-0.4338" y="4" relative="1" as="geometry">
                        <mxPoint x="604" y="618" as="sourcePoint"/>
                        <Array as="points">
                            <mxPoint x="630" y="618"/>
                            <mxPoint x="630" y="709"/>
                        </Array>
                        <mxPoint x="604" y="709.0526315789475" as="targetPoint"/>
                        <mxPoint as="offset"/>
                    </mxGeometry>
                </mxCell>
                <mxCell id="29" value="response new UserInfo" style="html=1;verticalAlign=bottom;endArrow=open;dashed=1;endSize=8;edgeStyle=elbowEdgeStyle;elbow=vertical;curved=0;rounded=0;" edge="1" parent="1">
                    <mxGeometry x="-0.0247" relative="1" as="geometry">
                        <mxPoint x="965" y="748.3114285714287" as="sourcePoint"/>
                        <mxPoint x="604.0000000000001" y="748" as="targetPoint"/>
                        <mxPoint as="offset"/>
                    </mxGeometry>
                </mxCell>
                <mxCell id="30" value="" style="html=1;align=left;spacingLeft=2;endArrow=block;rounded=0;edgeStyle=orthogonalEdgeStyle;curved=0;rounded=0;startArrow=none;" edge="1" parent="1">
                    <mxGeometry relative="1" as="geometry">
                        <mxPoint x="630" y="640" as="sourcePoint"/>
                        <Array as="points">
                            <mxPoint x="620" y="640"/>
                            <mxPoint x="620" y="640"/>
                        </Array>
                        <mxPoint x="604" y="640" as="targetPoint"/>
                    </mxGeometry>
                </mxCell>
                <mxCell id="31" value="&lt;span style=&quot;color: rgb(240, 240, 240); font-family: Helvetica; font-size: 11px; font-style: normal; font-variant-ligatures: normal; font-variant-caps: normal; font-weight: 400; letter-spacing: normal; orphans: 2; text-align: left; text-indent: 0px; text-transform: none; widows: 2; word-spacing: 0px; -webkit-text-stroke-width: 0px; background-color: rgb(24, 20, 29); text-decoration-thickness: initial; text-decoration-style: initial; text-decoration-color: initial; float: none; display: inline !important;&quot;&gt;generate new username&lt;br&gt;(social email with random suffix)&lt;/span&gt;" style="text;whiteSpace=wrap;html=1;" vertex="1" parent="1">
                    <mxGeometry x="636" y="656" width="290" height="40" as="geometry"/>
                </mxCell>
                <mxCell id="34" value="" style="html=1;points=[];perimeter=orthogonalPerimeter;outlineConnect=0;targetShapes=umlLifeline;portConstraint=eastwest;newEdgeStyle={&quot;edgeStyle&quot;:&quot;elbowEdgeStyle&quot;,&quot;elbow&quot;:&quot;vertical&quot;,&quot;curved&quot;:0,&quot;rounded&quot;:0};" vertex="1" parent="1">
                    <mxGeometry x="418" y="625" width="10" height="30" as="geometry"/>
                </mxCell>
                <mxCell id="ti7OjyQPhwodmMIkzD1--41" value="unregistered" style="shape=umlFrame;whiteSpace=wrap;html=1;pointerEvents=0;fillColor=#f8cecc;strokeColor=#b85450;width=77;height=32;" parent="1" vertex="1">
                    <mxGeometry x="515" y="660" width="475" height="100" as="geometry"/>
                </mxCell>
                <mxCell id="37" value="registered" style="shape=umlFrame;whiteSpace=wrap;html=1;pointerEvents=0;fillColor=#D5E8D4;strokeColor=#82b366;width=77;height=32;" vertex="1" parent="1">
                    <mxGeometry x="21" y="376" width="969" height="280" as="geometry"/>
                </mxCell>
            </root>
        </mxGraphModel>
    </diagram>
</mxfile>